# xmcd
#
# Track frame offsets: 
#        150
#        21978
#        43222
#        65048
#
# Disc length: 1149 seconds
#
# Revision: 1
# Processed by: cddbd v1.5.2PL0 Copyright (c) Steve Scherf et al.
# Submitted via: ExactAudioCopy v1.0b3
#
DISCID=37047b04
DTITLE=南春香（佐藤利奈）・南夏奈（井上麻里奈）・南千秋（茅原実里） - ココロノツバサ
DYEAR=2008
DGENRE=Anime
TTITLE0=ココロノツバサ
TTITLE1=HAPPY☆MYらいふ
TTITLE2=ココロノツバサ (Off Vocal Version)
TTITLE3=HAPPY☆MYらいふ (Off Vocal Version)
EXTD=
EXTT0=「みなみけ ～おかわり～」 オープニングテーマ
EXTT1=
EXTT2=
EXTT3=
PLAYORDER=
